<svg width="38" height="40" viewBox="0 0 38 40" fill="none" xmlns="http://www.w3.org/2000/svg">
<path d="M1.7445 0.000232017C1.51658 -0.00411577 1.29029 0.0526809 1.07878 0.167321C0.867278 0.281961 0.674773 0.452157 0.512458 0.668021C0.350142 0.883884 0.221252 1.14111 0.133278 1.42474C0.0453036 1.70838 0 2.01277 0 2.32023C0 2.62769 0.0453036 2.93208 0.133278 3.21572C0.221252 3.49936 0.350142 3.75658 0.512458 3.97244C0.674773 4.18831 0.867278 4.3585 1.07878 4.47314C1.29029 4.58778 1.51658 4.64458 1.7445 4.64023H36.1445C36.3724 4.64458 36.5987 4.58778 36.8102 4.47314C37.0217 4.3585 37.2142 4.18831 37.3765 3.97244C37.5389 3.75658 37.6677 3.49936 37.7557 3.21572C37.8437 2.93208 37.889 2.62769 37.889 2.32023C37.889 2.01277 37.8437 1.70838 37.7557 1.42474C37.6677 1.14111 37.5389 0.883884 37.3765 0.668021C37.2142 0.452157 37.0217 0.281961 36.8102 0.167321C36.5987 0.0526809 36.3724 -0.00411577 36.1445 0.000232017H1.7445ZM1.7445 17.4002C1.51658 17.3959 1.29029 17.4527 1.07878 17.5673C0.867278 17.682 0.674773 17.8522 0.512458 18.068C0.350142 18.2839 0.221252 18.5411 0.133278 18.8247C0.0453036 19.1084 0 19.4128 0 19.7202C0 20.0277 0.0453036 20.3321 0.133278 20.6157C0.221252 20.8994 0.350142 21.1566 0.512458 21.3724C0.674773 21.5883 0.867278 21.7585 1.07878 21.8731C1.29029 21.9878 1.51658 22.0446 1.7445 22.0402H36.1445C36.3724 22.0446 36.5987 21.9878 36.8102 21.8731C37.0217 21.7585 37.2142 21.5883 37.3765 21.3724C37.5389 21.1566 37.6677 20.8994 37.7557 20.6157C37.8437 20.3321 37.889 20.0277 37.889 19.7202C37.889 19.4128 37.8437 19.1084 37.7557 18.8247C37.6677 18.5411 37.5389 18.2839 37.3765 18.068C37.2142 17.8522 37.0217 17.682 36.8102 17.5673C36.5987 17.4527 36.3724 17.3959 36.1445 17.4002H1.7445ZM1.7445 34.8002C1.51658 34.7959 1.29029 34.8527 1.07878 34.9673C0.867278 35.082 0.674773 35.2522 0.512458 35.468C0.350142 35.6839 0.221252 35.9411 0.133278 36.2247C0.0453036 36.5084 0 36.8128 0 37.1202C0 37.4277 0.0453036 37.7321 0.133278 38.0157C0.221252 38.2994 0.350142 38.5566 0.512458 38.7724C0.674773 38.9883 0.867278 39.1585 1.07878 39.2731C1.29029 39.3878 1.51658 39.4446 1.7445 39.4402H36.1445C36.3724 39.4446 36.5987 39.3878 36.8102 39.2731C37.0217 39.1585 37.2142 38.9883 37.3765 38.7724C37.5389 38.5566 37.6677 38.2994 37.7557 38.0157C37.8437 37.7321 37.889 37.4277 37.889 37.1202C37.889 36.8128 37.8437 36.5084 37.7557 36.2247C37.6677 35.9411 37.5389 35.6839 37.3765 35.468C37.2142 35.2522 37.0217 35.082 36.8102 34.9673C36.5987 34.8527 36.3724 34.7959 36.1445 34.8002H1.7445Z" fill="black"/>
</svg>
