<svg width="35" height="40" viewBox="0 0 35 40" fill="none" xmlns="http://www.w3.org/2000/svg">
<path d="M23.7223 38.5V33.1976C23.7889 32.3167 23.6744 31.431 23.3863 30.5996C23.0981 29.7682 22.643 29.01 22.0512 28.3756C27.6334 27.7289 33.5 25.5304 33.5 15.4429C33.4995 12.8634 32.5448 10.3829 30.8333 8.51467C31.6437 6.25793 31.5864 3.76348 30.6733 1.5495C30.6733 1.5495 28.5756 0.902868 23.7223 4.28384C19.6476 3.13619 15.3525 3.13619 11.2779 4.28384C6.42456 0.902868 4.32679 1.5495 4.32679 1.5495C3.41367 3.76348 3.35638 6.25793 4.16679 8.51467C2.44257 10.3967 1.48684 12.8997 1.50014 15.4983C1.50014 25.5119 7.36676 27.7105 12.949 28.431C12.3641 29.0591 11.913 29.8081 11.6251 30.6294C11.3372 31.4506 11.2188 32.3258 11.2779 33.1976V38.5" stroke="white" stroke-width="3" stroke-linecap="round" stroke-linejoin="round"/>
</svg>
